<svg width="48" height="48" viewBox="0 0 48 48" fill="none" xmlns="http://www.w3.org/2000/svg">
<g filter="url(#filter0_d_5_61)">
<rect x="4" width="40" height="40" rx="20" fill="#363636"/>
<g clip-path="url(#clip0_5_61)">
<path d="M36 20C36 26.62 30.62 32 24 32C17.38 32 12 26.62 12 20C12 13.38 17.38 8 24 8C24.73 8 25.47 8.07 26.18 8.2C26.72 8.3 27.08 8.82 26.98 9.36C26.88 9.9 26.36 10.26 25.82 10.16C25.23 10.05 24.61 10 24 10C18.49 10 14 14.49 14 20C14 25.51 18.49 30 24 30C29.51 30 34 25.51 34 20C34 19.39 33.94 18.78 33.84 18.18C33.74 17.64 34.1 17.12 34.64 17.02C35.19 16.92 35.7 17.28 35.8 17.82C35.93 18.53 36 19.27 36 20ZM24.86 14.06C25.41 14.14 25.91 13.76 25.99 13.21C26.07 12.66 25.69 12.16 25.14 12.08C24.76 12.03 24.38 12 24 12C19.59 12 16 15.59 16 20C16 24.41 19.59 28 24 28C28.41 28 32 24.41 32 20C32 19.62 31.97 19.24 31.92 18.86C31.84 18.31 31.34 17.93 30.79 18.01C30.24 18.09 29.86 18.59 29.94 19.14C29.98 19.42 30 19.71 30 20C30 23.31 27.31 26 24 26C20.69 26 18 23.31 18 20C18 16.69 20.69 14 24 14C24.29 14 24.58 14.02 24.86 14.06ZM22.67 18.51C23.08 18.14 23.12 17.51 22.75 17.1C22.38 16.69 21.75 16.65 21.34 17.02C20.49 17.78 20.01 18.87 20.01 20C20.01 22.21 21.8 24 24.01 24C25.15 24 26.23 23.51 26.99 22.67C27.36 22.26 27.32 21.63 26.91 21.26C26.5 20.89 25.87 20.93 25.5 21.34C25.12 21.76 24.58 22.01 24.01 22.01C22.91 22.01 22.01 21.11 22.01 20.01C22.01 19.44 22.25 18.9 22.68 18.52L22.67 18.51ZM24.3 18.29C23.91 18.68 23.91 19.31 24.3 19.7C24.5 19.9 24.75 19.99 25.01 19.99C25.27 19.99 25.52 19.89 25.72 19.7L30.43 14.99H33.02C33.29 14.99 33.54 14.88 33.73 14.7L35.73 12.7C36.02 12.41 36.1 11.98 35.95 11.61C35.8 11.24 35.43 10.99 35.03 10.99H33.03V9C33.03 8.6 32.79 8.23 32.41 8.08C32.03 7.92 31.61 8.01 31.32 8.3L29.32 10.3C29.13 10.49 29.03 10.74 29.03 11.01V13.6L24.32 18.31L24.3 18.29Z" fill="white"/>
</g>
</g>
<defs>
<filter id="filter0_d_5_61" x="0" y="0" width="48" height="48" filterUnits="userSpaceOnUse" color-interpolation-filters="sRGB">
<feFlood flood-opacity="0" result="BackgroundImageFix"/>
<feColorMatrix in="SourceAlpha" type="matrix" values="0 0 0 0 0 0 0 0 0 0 0 0 0 0 0 0 0 0 127 0" result="hardAlpha"/>
<feOffset dy="4"/>
<feGaussianBlur stdDeviation="2"/>
<feComposite in2="hardAlpha" operator="out"/>
<feColorMatrix type="matrix" values="0 0 0 0 0 0 0 0 0 0 0 0 0 0 0 0 0 0 0.25 0"/>
<feBlend mode="normal" in2="BackgroundImageFix" result="effect1_dropShadow_5_61"/>
<feBlend mode="normal" in="SourceGraphic" in2="effect1_dropShadow_5_61" result="shape"/>
</filter>
<clipPath id="clip0_5_61">
<rect width="24" height="24" fill="white" transform="translate(12 8)"/>
</clipPath>
</defs>
</svg>
