<svg width="48" height="48" viewBox="0 0 48 48" fill="none" xmlns="http://www.w3.org/2000/svg">
<g filter="url(#filter0_d_5_53)">
<rect x="4" width="40" height="40" rx="20" fill="white"/>
<g clip-path="url(#clip0_5_53)">
<path d="M27.6 17.6001H25.16L27.56 13.8001C27.64 13.6801 27.64 13.5201 27.56 13.4001C27.48 13.2801 27.36 13.2001 27.2 13.2001H24C23.84 13.2001 23.72 13.2801 23.64 13.4001L20.04 19.8001C19.96 19.9201 19.96 20.0801 20.04 20.2001C20.12 20.3201 20.24 20.4001 20.4 20.4001H22.48L20.04 26.2801C19.96 26.4401 20.04 26.6401 20.2 26.7601C20.24 26.8001 20.32 26.8001 20.4 26.8001C20.52 26.8001 20.64 26.7601 20.72 26.6801L27.92 18.2801C28 18.1601 28.04 18.0001 27.96 17.8401C27.88 17.68 27.76 17.6001 27.6 17.6001ZM21.72 24.2L23.4 20.12C23.44 20 23.44 19.88 23.3601 19.76C23.28 19.68 23.16 19.6001 23.04 19.6001H21.08L24.2 14.0001H26.44L24.04 17.8001C23.96 17.9201 23.96 18.0801 24.04 18.2001C24.12 18.3201 24.24 18.4001 24.4 18.4001H26.72L21.72 24.2Z" fill="#FA991C"/>
<path d="M33.6 8H14.4C13.08 8 12 9.07999 12 10.4V29.6C12 30.92 13.08 32 14.4 32H33.6C34.92 32 36 30.92 36 29.6V10.4C36 9.07999 34.92 8 33.6 8ZM35.2 29.6C35.2 30.48 34.48 31.2 33.6 31.2H14.4C13.52 31.2 12.8 30.48 12.8 29.6V10.4C12.8 9.51999 13.52 8.8 14.4 8.8H33.6C34.48 8.8 35.2 9.51999 35.2 10.4V29.6Z" fill="#FA991C"/>
<path d="M24 10.4C18.72 10.4 14.4 14.72 14.4 20C14.4 25.2801 18.72 29.6 24 29.6C29.28 29.6 33.6 25.2801 33.6 20C33.6 14.72 29.28 10.4 24 10.4ZM24 28.8C19.16 28.8 15.2 24.84 15.2 20C15.2 15.16 19.16 11.2 24 11.2C28.8399 11.2 32.8 15.16 32.8 20C32.8 24.84 28.84 28.8 24 28.8Z" fill="#FA991C"/>
<path d="M14.4 11.2C14.8401 11.2 15.2 10.84 15.2 10.4C15.2 9.95997 14.8401 9.59998 14.4 9.59998C13.96 9.59998 13.6 9.95997 13.6 10.4C13.6 10.84 13.96 11.2 14.4 11.2Z" fill="#FA991C"/>
<path d="M14.4 28.8C13.96 28.8 13.6 29.16 13.6 29.6001C13.6 30.0401 13.96 30.4001 14.4 30.4001C14.8401 30.4001 15.2 30.0401 15.2 29.6001C15.2 29.16 14.84 28.8 14.4 28.8Z" fill="#FA991C"/>
<path d="M33.6 9.59998C33.16 9.59998 32.8 9.95997 32.8 10.4C32.8 10.84 33.16 11.2 33.6 11.2C34.04 11.2 34.4 10.84 34.4 10.4C34.4 9.95997 34.04 9.59998 33.6 9.59998Z" fill="#FA991C"/>
<path d="M33.6 28.8C33.16 28.8 32.8 29.16 32.8 29.6001C32.8 30.0401 33.16 30.4001 33.6 30.4001C34.04 30.4001 34.4 30.0401 34.4 29.6001C34.4 29.16 34.04 28.8 33.6 28.8Z" fill="#FA991C"/>
</g>
</g>
<defs>
<filter id="filter0_d_5_53" x="0" y="0" width="48" height="48" filterUnits="userSpaceOnUse" color-interpolation-filters="sRGB">
<feFlood flood-opacity="0" result="BackgroundImageFix"/>
<feColorMatrix in="SourceAlpha" type="matrix" values="0 0 0 0 0 0 0 0 0 0 0 0 0 0 0 0 0 0 127 0" result="hardAlpha"/>
<feOffset dy="4"/>
<feGaussianBlur stdDeviation="2"/>
<feComposite in2="hardAlpha" operator="out"/>
<feColorMatrix type="matrix" values="0 0 0 0 0 0 0 0 0 0 0 0 0 0 0 0 0 0 0.25 0"/>
<feBlend mode="normal" in2="BackgroundImageFix" result="effect1_dropShadow_5_53"/>
<feBlend mode="normal" in="SourceGraphic" in2="effect1_dropShadow_5_53" result="shape"/>
</filter>
<clipPath id="clip0_5_53">
<rect width="24" height="24" fill="white" transform="translate(12 8)"/>
</clipPath>
</defs>
</svg>
