<svg width="48" height="48" viewBox="0 0 48 48" fill="none" xmlns="http://www.w3.org/2000/svg">
<g filter="url(#filter0_d_5_51)">
<rect x="4" width="40" height="40" rx="20" fill="white"/>
<g clip-path="url(#clip0_5_51)">
<path d="M15.6027 9.19995C15.3818 9.19995 15.2028 9.37901 15.2028 9.59993V11.1999C15.2028 11.4208 15.3818 11.5999 15.6027 11.5999C15.8237 11.5999 16.0027 11.4208 16.0027 11.1999V9.59998C16.0027 9.37906 15.8236 9.19995 15.6027 9.19995Z" fill="#FA991C"/>
<path d="M18.0027 9.19995C17.7818 9.19995 17.6027 9.37901 17.6027 9.59993V11.1999C17.6027 11.4208 17.7818 11.5999 18.0027 11.5999C18.2236 11.5999 18.4027 11.4208 18.4027 11.1999V9.59998C18.4027 9.37906 18.2236 9.19995 18.0027 9.19995Z" fill="#FA991C"/>
<path d="M27.2 20.8105C26.979 20.8105 26.8 20.9896 26.8 21.2105C26.8 22.0224 26.6295 22.5137 26.2748 23.0088C26.2273 23.0751 25.9811 23.3958 25.9164 23.4896C25.7965 23.6633 25.7117 23.8278 25.6599 23.9999H25.5641C25.5403 23.5987 25.5759 23.2745 25.6632 22.8565C25.6623 22.8605 25.7041 22.6633 25.7153 22.6079C25.7349 22.5104 25.7493 22.4292 25.7604 22.3492C25.8212 21.911 25.772 21.5252 25.5671 21.0515C25.4794 20.8488 25.2439 20.7555 25.0412 20.8432C24.8385 20.9309 24.7452 21.1664 24.8329 21.3692C24.9787 21.7061 25.009 21.944 24.968 22.2392C24.9594 22.3009 24.9477 22.367 24.931 22.4498C24.9207 22.5008 24.8799 22.6936 24.88 22.6931C24.7823 23.161 24.7396 23.5429 24.7627 23.9999H24.6037C24.4523 23.7669 24.3968 23.5497 24.3916 23.2655C24.39 23.1761 24.392 23.1039 24.3997 22.9257C24.4346 22.1083 24.3567 21.6521 23.9371 20.9951C23.8183 20.8089 23.571 20.7543 23.3847 20.8732C23.1985 20.9921 23.144 21.2394 23.2628 21.4256C23.5767 21.9171 23.6289 22.2231 23.6003 22.8915C23.592 23.0862 23.5897 23.1688 23.5917 23.2801C23.6003 23.7472 23.7137 24.1347 24 24.5335V27.2103C24 28.5309 22.9253 29.5999 21.6 29.5999H20.4C19.0747 29.5999 18 28.5309 18 27.2103L17.9981 26.3999H18.0004C18.442 26.3999 18.8004 26.0421 18.8004 25.6003L18.8023 23.9999H20.3707C21.2439 23.9999 21.8407 23.1184 21.517 22.3076L21.4828 22.2236C21.2981 21.7612 21.2027 21.266 21.2027 20.7664V13.6C21.2027 13.1579 20.8448 12.8 20.4027 12.8H20.0027V8.40011C20.0027 8.17918 19.8237 8.00012 19.6028 8.00012H14.0028C13.7819 8.00012 13.6028 8.17918 13.6028 8.40011V12.8H13.2027C12.7609 12.8 12.4027 13.158 12.4027 13.6V20.7664C12.4027 21.2658 12.3074 21.7612 12.122 22.2262L12.0896 22.3068C11.7651 23.1181 12.3621 23.9999 13.2351 23.9999H14.8024L14.8004 25.5991C14.8004 26.0415 15.158 26.3997 15.6 26.3999V27.2103C15.6 29.8558 17.7513 31.9999 20.4 31.9999H21.6C24.2505 31.9999 26.4 29.8541 26.4 27.1999V24.4105C26.4 24.2537 26.449 24.1263 26.5748 23.9441C26.6253 23.8709 26.8657 23.5578 26.9252 23.4747C27.3737 22.8486 27.6 22.1965 27.6 21.2105C27.6 20.9896 27.4209 20.8105 27.2 20.8105ZM14.4028 8.80014H19.2028V12.8H14.4028V8.80014ZM12.8321 22.6045L12.8646 22.5236C13.088 21.9633 13.2027 21.3674 13.2027 20.7664V13.6H14.0004C14.0012 13.6 14.002 13.6001 14.0028 13.6001H19.6028C19.6036 13.6001 19.6044 13.6 19.6052 13.6H20.4027V20.7664C20.4027 21.3677 20.5175 21.9637 20.7409 22.5228L20.775 22.6067C20.888 22.8898 20.678 23.2 20.3707 23.2H18.4028H15.2028H13.2351C12.9281 23.2 12.7181 22.8897 12.8321 22.6045ZM18.0023 24L18.0004 25.5999L15.6004 25.6C15.6003 25.6 15.6023 24 15.6023 24L18.0023 24ZM25.6 27.1999C25.6 29.4119 23.8089 31.1999 21.6 31.1999H20.4C18.1925 31.1999 16.4 29.4134 16.4 27.2103V26.3999H17.1982L17.2 27.2112C17.2 28.9736 18.6339 30.3999 20.4001 30.3999H21.6001C23.3662 30.3999 24.8001 28.9736 24.8001 27.2103V24.7999H25.6001V27.1999H25.6Z" fill="#FA991C"/>
<path d="M31.2 8H29.2C26.5531 8 24.4 10.1531 24.4 12.8V16C24.4 16.1568 24.351 16.2842 24.2252 16.4665C24.1747 16.5396 23.9344 16.8527 23.8748 16.9358C23.4263 17.5619 23.2 18.214 23.2 19.2C23.2 19.4209 23.3791 19.5999 23.6 19.5999C23.8209 19.5999 24 19.4209 24 19.2C24 18.388 24.1704 17.8968 24.5252 17.4017C24.5727 17.3353 24.8189 17.0147 24.8836 16.9209C25.006 16.7436 25.0919 16.576 25.1433 16.3999H25.2359C25.2597 16.8017 25.2241 17.1272 25.1367 17.5479C25.1383 17.5405 25.0956 17.7431 25.0843 17.7995C25.0646 17.8981 25.0502 17.9802 25.0391 18.0611C24.979 18.4999 25.0284 18.8863 25.2328 19.3588C25.3205 19.5615 25.556 19.6548 25.7588 19.5671C25.9615 19.4794 26.0548 19.2439 25.9671 19.0412C25.8217 18.7051 25.7911 18.4661 25.8317 18.1697C25.8402 18.1073 25.852 18.0403 25.8688 17.9566C25.8791 17.9047 25.9208 17.7067 25.92 17.7106C26.0176 17.2403 26.0603 16.8573 26.0372 16.4H26.1952C26.3463 16.6323 26.4024 16.8495 26.4082 17.1326C26.4101 17.224 26.408 17.298 26.4003 17.4801C26.3653 18.3009 26.4432 18.7582 26.8628 19.4153C26.9817 19.6014 27.229 19.656 27.4152 19.5371C27.6014 19.4183 27.656 19.1709 27.5371 18.9847C27.2233 18.4933 27.171 18.1861 27.1996 17.5142C27.2081 17.3149 27.2104 17.2302 27.2081 17.1161C27.1985 16.6512 27.0848 16.2643 26.8 15.8676V12.8C26.8 11.477 27.8771 10.4 29.2 10.4H31.2C32.5228 10.4 33.6 11.477 33.6 12.8V31.6C33.6 31.8209 33.779 32 33.9999 32H35.5999C35.8208 32 35.9999 31.8209 35.9999 31.6V12.8C36 10.1531 33.8469 8 31.2 8ZM35.2 31.2H34.4V12.8C34.4 11.0352 32.9646 9.59998 31.2 9.59998H29.2C27.4353 9.59998 25.9999 11.0352 25.9999 12.8V15.6H25.1999V12.8C25.1999 10.5949 26.9949 8.80001 29.1999 8.80001H31.1999C33.405 8.80001 35.1999 10.5949 35.1999 12.8V31.2H35.2Z" fill="#FA991C"/>
</g>
</g>
<defs>
<filter id="filter0_d_5_51" x="0" y="0" width="48" height="48" filterUnits="userSpaceOnUse" color-interpolation-filters="sRGB">
<feFlood flood-opacity="0" result="BackgroundImageFix"/>
<feColorMatrix in="SourceAlpha" type="matrix" values="0 0 0 0 0 0 0 0 0 0 0 0 0 0 0 0 0 0 127 0" result="hardAlpha"/>
<feOffset dy="4"/>
<feGaussianBlur stdDeviation="2"/>
<feComposite in2="hardAlpha" operator="out"/>
<feColorMatrix type="matrix" values="0 0 0 0 0 0 0 0 0 0 0 0 0 0 0 0 0 0 0.25 0"/>
<feBlend mode="normal" in2="BackgroundImageFix" result="effect1_dropShadow_5_51"/>
<feBlend mode="normal" in="SourceGraphic" in2="effect1_dropShadow_5_51" result="shape"/>
</filter>
<clipPath id="clip0_5_51">
<rect width="24" height="24" fill="white" transform="translate(12 8)"/>
</clipPath>
</defs>
</svg>
