<svg width="46" height="48" viewBox="0 0 46 48" fill="none" xmlns="http://www.w3.org/2000/svg">
<g filter="url(#filter0_d_5_55)">
<rect x="4" width="40" height="40" rx="20" fill="white"/>
<path d="M23.2164 9.27295L21.8282 12.0493L21.2464 10.3042L19.1719 11.3414V12.2847L20.7535 11.4939L21.6718 14.2486L23.2837 11.025L25.5336 14.775L27.1887 11.4651L28.8281 12.2848V11.3414L26.8113 10.3331L25.4663 13.0229L23.2164 9.27295ZM16.1719 11.3209V13.4772H18.3281V11.3209H16.1719ZM29.6719 11.3209V13.4772H31.8281V11.3209H29.6719ZM15.4219 14.3209V28.4772H19.8281V23.2272H28.1719V28.4772H32.5781V14.3209H28.8294L27.3294 20.3209H20.6706L19.1706 14.3209H15.4219ZM20.1575 14.7897L20.3685 15.6334H27.6315L27.8425 14.7897H20.1575ZM20.556 16.3834L20.7669 17.2272H27.2331L27.444 16.3834H20.556ZM30.3281 17.649C30.9703 17.649 31.5 18.1787 31.5 18.8209C31.5 19.4631 30.9703 19.9928 30.3281 19.9928C29.6859 19.9928 29.1562 19.4631 29.1562 18.8209C29.1562 18.1787 29.6859 17.649 30.3281 17.649ZM14.5781 17.6873L13.1719 18.6248V25.4772H14.5781V17.6873ZM20.9544 17.9772L21.1653 18.8209H26.8347L27.0456 17.9772H20.9544ZM30.3281 20.649C30.9703 20.649 31.5 21.1787 31.5 21.8209C31.5 22.4631 30.9703 22.9928 30.3281 22.9928C29.6859 22.9928 29.1562 22.4631 29.1562 21.8209C29.1562 21.1787 29.6859 20.649 30.3281 20.649ZM33.4219 23.3209V25.4772H34.8281V23.3209H33.4219ZM30.3281 23.649C30.9703 23.649 31.5 24.1787 31.5 24.8209C31.5 25.4631 30.9703 25.9928 30.3281 25.9928C29.6859 25.9928 29.1562 25.4631 29.1562 24.8209C29.1562 24.1787 29.6859 23.649 30.3281 23.649ZM20.6719 24.0709V26.2272H21.4893L22.5 24.2057L24.1156 27.4368L24.5752 26.9772H27.3281V24.0709H20.6719ZM22.5 26.0925L22.0107 27.0709H20.6719V29.2272H27.3281V27.8209H24.9248L23.8845 28.8612L22.5 26.0925ZM33.4219 26.3209V28.4772H34.8281V26.3209H33.4219ZM15.1406 29.3209L13.2656 30.7272H18.3281V29.3209H15.1406ZM29.6719 29.3209V30.7272H34.7344L32.8594 29.3209H29.6719Z" fill="#FA991C"/>
</g>
<defs>
<filter id="filter0_d_5_55" x="0" y="0" width="48" height="48" filterUnits="userSpaceOnUse" color-interpolation-filters="sRGB">
<feFlood flood-opacity="0" result="BackgroundImageFix"/>
<feColorMatrix in="SourceAlpha" type="matrix" values="0 0 0 0 0 0 0 0 0 0 0 0 0 0 0 0 0 0 127 0" result="hardAlpha"/>
<feOffset dy="4"/>
<feGaussianBlur stdDeviation="2"/>
<feComposite in2="hardAlpha" operator="out"/>
<feColorMatrix type="matrix" values="0 0 0 0 0 0 0 0 0 0 0 0 0 0 0 0 0 0 0.25 0"/>
<feBlend mode="normal" in2="BackgroundImageFix" result="effect1_dropShadow_5_55"/>
<feBlend mode="normal" in="SourceGraphic" in2="effect1_dropShadow_5_55" result="shape"/>
</filter>
</defs>
</svg>
