<svg width="88" height="47" viewBox="0 0 88 47" fill="none" xmlns="http://www.w3.org/2000/svg">
<g clip-path="url(#clip0_11_122)">
<path d="M14.0684 14.4124V13.0043C14.0684 3.51641 11.8636 0 5.99211 0H0V27.4167H5.99211C11.8636 27.4167 14.0684 23.9003 14.0684 14.4124ZM4.55438 21.6504V5.76281H5.75089C8.86753 5.76281 9.44407 8.26038 9.44407 13.0043V14.4124C9.44407 19.1563 8.86753 21.6504 5.75089 21.6504H4.55438Z" fill="#363636"/>
<mask id="mask0_11_122" style="mask-type:luminance" maskUnits="userSpaceOnUse" x="20" y="4" width="7" height="19">
<path d="M20.5306 4.73584H26.0885V22.9932H20.5306V4.73584Z" fill="white"/>
</mask>
<g mask="url(#mask0_11_122)">
<path d="M24.6339 4.73584L20.5306 16.7273L22.8246 16.7442L22.2385 22.9932L26.0885 13.5416L23.7558 13.4361L24.6339 4.73584Z" fill="#FA991C"/>
</g>
<path d="M23.2785 27.4167C28.313 27.4167 30.6384 23.5473 30.6384 14.3879V13.0287C30.6384 3.86934 28.313 0 23.2785 0C18.2465 0 15.9211 3.86934 15.9211 13.0287V14.3879C15.9211 23.5473 18.2465 27.4167 23.2785 27.4167ZM23.1603 21.8534C21.0014 21.8534 20.5478 18.9676 20.5478 14.3879V13.0287C20.5478 8.44903 21.0014 5.56325 23.1603 5.56325H23.3991C25.5557 5.56325 26.0117 8.44903 26.0117 13.0287V14.3879C26.0117 18.9676 25.5557 21.8534 23.3991 21.8534H23.1603Z" fill="#363636"/>
<path d="M46.9911 11.5999L46.8706 16.871V27.4167H51.4249V0H44.6416L41.9592 15.8167L39.2743 0H32.491V27.4167H37.0453V16.871L36.9247 11.5999L39.6096 27.4167H44.3063L46.9911 11.5999Z" fill="#363636"/>
<path d="M60.23 27.4167C65.6452 27.4167 67.1797 24.0318 67.1797 18.3705V0H62.6254V18.1967C62.6254 20.3375 62.2174 21.7554 60.23 21.7554C58.2398 21.7554 57.8322 20.3375 57.8322 18.1967V0H53.2775V18.3705C53.2775 24.0318 54.812 27.4167 60.23 27.4167Z" fill="#363636"/>
<path d="M83.5324 11.5999L83.4119 16.871V27.4167H87.9662V0H81.1828L78.5006 15.8167L75.8157 0H69.0323V27.4167H73.5865V16.871L73.4661 11.5999L76.151 27.4167H80.8475L83.5324 11.5999Z" fill="#363636"/>
<path d="M22.187 32.6389V40.1697H25.1661V39.5406H22.6815V36.6371H24.8236V36.0184H22.6815V33.2678H25.1661V32.6389H22.187Z" fill="#FA991C"/>
<path d="M30.0558 32.6389H29.5903V37.2457L29.612 38.9933L27.0912 32.6389H26.5556V40.1697H27.0212V35.5628L26.9947 33.8153L29.5227 40.1697H30.0558V32.6389Z" fill="#FA991C"/>
<path d="M33.3896 40.3804C34.2388 40.3804 34.7333 39.9384 35.0203 39.5135V36.5691H33.6091V37.1845H34.5282V39.1735C34.3352 39.4624 33.9661 39.7548 33.4258 39.7548H33.3776C32.3982 39.7548 31.9591 38.8471 31.9591 36.7018V36.3175C31.9591 34.1723 32.4175 33.2644 33.3221 33.2644H33.3631C34.1857 33.2644 34.521 33.9309 34.521 35.488H35.0203V35.216C35.0203 33.5161 34.4655 32.6389 33.3221 32.6389C32.1015 32.6389 31.4453 33.7098 31.4453 36.3175V36.7018C31.4453 39.3095 32.1015 40.3804 33.3896 40.3804Z" fill="#FA991C"/>
<path d="M36.4098 32.6389V40.1697H39.389V39.5406H36.9043V36.6371H39.0464V36.0184H36.9043V33.2678H39.389V32.6389H36.4098Z" fill="#FA991C"/>
<path d="M44.2787 32.6389H43.8131V37.2457L43.8348 38.9933L41.314 32.6389H40.7784V40.1697H41.244V35.5628L41.2175 33.8153L43.7456 40.1697H44.2787V32.6389Z" fill="#FA991C"/>
<path d="M48.5385 32.6389V36.0184H46.1626V32.6389H45.6681V40.1697H46.1626V36.6371H48.5385V40.1697H49.0308V32.6389H48.5385Z" fill="#FA991C"/>
<path d="M51.9617 32.6389L50.4203 40.2479H50.9557L51.3392 38.3167H53.2909L53.6744 40.2479H54.2098L52.6685 32.6389H51.9617ZM52.3114 33.4039L53.1608 37.6877H51.4624L52.3114 33.4039Z" fill="#FA991C"/>
<path d="M56.094 37.1098H57.0805C57.1625 37.1098 57.2444 37.1098 57.3264 37.0995L58.1759 40.1697H58.7159L57.7924 36.9635C58.2986 36.7323 58.7159 36.1714 58.7159 34.9746V34.7808C58.7159 33.0435 57.8405 32.6389 57.0805 32.6389H55.5993V40.1697H56.094V37.1098ZM56.094 36.4807V33.2678H57.0925C57.5511 33.2678 58.2097 33.5092 58.2097 34.8012V34.9474C58.2097 36.2393 57.5511 36.4807 57.0925 36.4807H56.094Z" fill="#FA991C"/>
<path d="M60.6001 32.6389H60.1054V40.1697H60.6001V32.6389Z" fill="#FA991C"/>
<path d="M63.5309 32.6389L61.9895 40.2479H62.5249L62.9089 38.3167H64.8602L65.2436 40.2479H65.7791L64.2377 32.6389H63.5309ZM63.881 33.4039L64.73 37.6877H63.0316L63.881 33.4039Z" fill="#FA991C"/>
<path d="M30.5491 45.6027H32.3945C32.5224 45.6027 32.6309 45.6672 32.7202 45.793C32.8094 45.9223 32.8553 46.0752 32.8553 46.2554C32.8553 46.4356 32.8094 46.5886 32.7202 46.7178C32.6309 46.8436 32.5224 46.9082 32.3945 46.9082H30.5491C30.4213 46.9082 30.3127 46.8436 30.2235 46.7178C30.1318 46.5886 30.0884 46.4356 30.0884 46.2554C30.0884 46.0752 30.1318 45.9223 30.2235 45.793C30.3127 45.6672 30.4213 45.6027 30.5491 45.6027ZM34.2399 45.6027H36.0829C36.2108 45.6027 36.3193 45.6672 36.411 45.793C36.5002 45.9223 36.5461 46.0752 36.5461 46.2554C36.5461 46.4356 36.5002 46.5886 36.411 46.7178C36.3193 46.8436 36.2108 46.9082 36.0829 46.9082H34.2399C34.1121 46.9082 34.0035 46.8436 33.9118 46.7178C33.8226 46.5886 33.7768 46.4356 33.7768 46.2554C33.7768 46.0752 33.8226 45.9223 33.9118 45.793C34.0035 45.6672 34.1121 45.6027 34.2399 45.6027ZM37.9283 45.6027H39.7737C39.9015 45.6027 40.0101 45.6672 40.0994 45.793C40.191 45.9223 40.2345 46.0752 40.2345 46.2554C40.2345 46.4356 40.191 46.5886 40.0994 46.7178C40.0101 46.8436 39.9015 46.9082 39.7737 46.9082H37.9283C37.8005 46.9082 37.6919 46.8436 37.6027 46.7178C37.5134 46.5886 37.4675 46.4356 37.4675 46.2554C37.4675 46.0752 37.5134 45.9223 37.6027 45.793C37.6919 45.6672 37.8005 45.6027 37.9283 45.6027ZM41.6191 45.6027H43.4645C43.5924 45.6027 43.7009 45.6672 43.7902 45.793C43.8794 45.9223 43.9252 46.0752 43.9252 46.2554C43.9252 46.4356 43.8794 46.5886 43.7902 46.7178C43.7009 46.8436 43.5924 46.9082 43.4645 46.9082H41.6191C41.4912 46.9082 41.3827 46.8436 41.2934 46.7178C41.2018 46.5886 41.1584 46.4356 41.1584 46.2554C41.1584 46.0752 41.2018 45.9223 41.2934 45.793C41.3827 45.6672 41.4912 45.6027 41.6191 45.6027ZM45.3099 45.6027H47.1527C47.2805 45.6027 47.3894 45.6672 47.4811 45.793C47.57 45.9223 47.6158 46.0752 47.6158 46.2554C47.6158 46.4356 47.57 46.5886 47.4811 46.7178C47.3894 46.8436 47.2805 46.9082 47.1527 46.9082H45.3099C45.182 46.9082 45.0735 46.8436 44.9818 46.7178C44.8926 46.5886 44.8467 46.4356 44.8467 46.2554C44.8467 46.0752 44.8926 45.9223 44.9818 45.793C45.0735 45.6672 45.182 45.6027 45.3099 45.6027ZM48.9984 45.6027H50.8436C50.9714 45.6027 51.0803 45.6672 51.1692 45.793C51.2609 45.9223 51.3044 46.0752 51.3044 46.2554C51.3044 46.4356 51.2609 46.5886 51.1692 46.7178C51.0803 46.8436 50.9714 46.9082 50.8436 46.9082H48.9984C48.8705 46.9082 48.7617 46.8436 48.6728 46.7178C48.5834 46.5886 48.5375 46.4356 48.5375 46.2554C48.5375 46.0752 48.5834 45.9223 48.6728 45.793C48.7617 45.6672 48.8705 45.6027 48.9984 45.6027ZM52.6888 45.6027H54.5345C54.66 45.6027 54.7684 45.6672 54.8601 45.793C54.9495 45.9223 54.9953 46.0752 54.9953 46.2554C54.9953 46.4356 54.9495 46.5886 54.8601 46.7178C54.7684 46.8436 54.66 46.9082 54.5345 46.9082H52.6888C52.561 46.9082 52.4526 46.8436 52.3632 46.7178C52.2715 46.5886 52.2284 46.4356 52.2284 46.2554C52.2284 46.0752 52.2715 45.9223 52.3632 45.793C52.4526 45.6672 52.561 45.6027 52.6888 45.6027ZM56.3774 45.6027H57.4172C57.545 45.6027 57.6534 45.6672 57.7428 45.793C57.8345 45.9223 57.878 46.0752 57.878 46.2554C57.878 46.4356 57.8345 46.5886 57.7428 46.7178C57.6534 46.8436 57.545 46.9082 57.4172 46.9082H56.3774C56.2519 46.9082 56.1435 46.8436 56.0518 46.7178C55.9624 46.5886 55.9166 46.4356 55.9166 46.2554C55.9166 46.0752 55.9624 45.9223 56.0518 45.793C56.1435 45.6672 56.2519 45.6027 56.3774 45.6027Z" fill="#363636"/>
</g>
<defs>
<clipPath id="clip0_11_122">
<rect width="88" height="47" fill="white"/>
</clipPath>
</defs>
</svg>
