<svg width="104" height="79" viewBox="0 0 104 79" fill="none" xmlns="http://www.w3.org/2000/svg">
<g clip-path="url(#clip0_113_28)">
<path d="M16.6263 24.225V21.8583C16.6263 5.91056 14.0206 0 7.08158 0H0V46.0833H7.08158C14.0206 46.0833 16.6263 40.1728 16.6263 24.225ZM5.38245 36.391V9.68642H6.79651C10.4798 9.68642 11.1612 13.8845 11.1612 21.8583V24.225C11.1612 32.1989 10.4798 36.391 6.79651 36.391H5.38245Z" fill="white"/>
<mask id="mask0_113_28" style="mask-type:luminance" maskUnits="userSpaceOnUse" x="24" y="7" width="7" height="32">
<path d="M24.2634 7.96021H30.8318V38.6481H24.2634V7.96021Z" fill="white"/>
</mask>
<g mask="url(#mask0_113_28)">
<path d="M29.1128 7.96021L24.2634 28.116L26.9746 28.1445L26.2818 38.6481L30.8318 22.7613L28.075 22.5841L29.1128 7.96021Z" fill="#FA991C"/>
</g>
<path d="M27.5108 46.0833C33.4606 46.0833 36.2089 39.5796 36.2089 24.184V21.8994C36.2089 6.50379 33.4606 0 27.5108 0C21.5639 0 18.8157 6.50379 18.8157 21.8994V24.184C18.8157 39.5796 21.5639 46.0833 27.5108 46.0833ZM27.3712 36.7324C24.8196 36.7324 24.2837 31.8818 24.2837 24.184V21.8994C24.2837 14.2016 24.8196 9.35099 27.3712 9.35099H27.6534C30.2021 9.35099 30.7409 14.2016 30.7409 21.8994V24.184C30.7409 31.8818 30.2021 36.7324 27.6534 36.7324H27.3712Z" fill="white"/>
<path d="M55.5349 19.4977L55.3926 28.3576V46.0833H60.7749V0H52.7583L49.5881 26.5856L46.4151 0H38.3984V46.0833H43.7809V28.3576L43.6383 19.4977L46.8114 46.0833H52.362L55.5349 19.4977Z" fill="white"/>
<path d="M71.1809 46.0833C77.5807 46.0833 79.3942 40.3938 79.3942 30.878V0H74.0119V30.5859C74.0119 34.1843 73.5297 36.5676 71.1809 36.5676C68.8289 36.5676 68.3472 34.1843 68.3472 30.5859V0H62.9644V30.878C62.9644 40.3938 64.7778 46.0833 71.1809 46.0833Z" fill="white"/>
<path d="M98.7202 19.4977L98.5779 28.3576V46.0833H103.96V0H95.9434L92.7736 26.5856L89.6005 0H81.5837V46.0833H86.966V28.3576L86.8237 19.4977L89.9968 46.0833H95.5471L98.7202 19.4977Z" fill="white"/>
<path d="M26.2209 54.8611V67.5192H29.7418V66.4619H26.8054V61.5816H29.337V60.5415H26.8054V55.9183H29.7418V54.8611H26.2209Z" fill="#FA991C"/>
<path d="M35.5204 54.8611H34.9702V62.6045L34.9959 65.5419L32.0167 54.8611H31.3838V67.5192H31.934V59.7758L31.9027 56.8384L34.8904 67.5192H35.5204V54.8611Z" fill="#FA991C"/>
<path d="M39.4604 67.8735C40.4639 67.8735 41.0484 67.1306 41.3876 66.4163V61.4672H39.7198V62.5016H40.806V65.8447C40.578 66.3305 40.1418 66.8219 39.5032 66.8219H39.4462C38.2887 66.8219 37.7698 65.2961 37.7698 61.6902V61.0444C37.7698 57.4385 38.3115 55.9126 39.3806 55.9126H39.429C40.4012 55.9126 40.7974 57.0327 40.7974 59.65H41.3876V59.1928C41.3876 56.3355 40.7319 54.8611 39.3806 54.8611C37.9381 54.8611 37.1626 56.6612 37.1626 61.0444V61.6902C37.1626 66.0734 37.9381 67.8735 39.4604 67.8735Z" fill="#FA991C"/>
<path d="M43.0298 54.8611V67.5192H46.5506V66.4619H43.6142V61.5816H46.1458V60.5415H43.6142V55.9183H46.5506V54.8611H43.0298Z" fill="#FA991C"/>
<path d="M52.3293 54.8611H51.779V62.6045L51.8047 65.5419L48.8256 54.8611H48.1926V67.5192H48.7428V59.7758L48.7115 56.8384L51.6992 67.5192H52.3293V54.8611Z" fill="#FA991C"/>
<path d="M57.3637 54.8611V60.5415H54.5559V54.8611H53.9714V67.5192H54.5559V61.5816H57.3637V67.5192H57.9455V54.8611H57.3637Z" fill="#FA991C"/>
<path d="M61.4093 54.8611L59.5876 67.6506H60.2204L60.6736 64.4046H62.9802L63.4335 67.6506H64.0662L62.2446 54.8611H61.4093ZM61.8226 56.1469L62.8264 63.3474H60.8192L61.8226 56.1469Z" fill="#FA991C"/>
<path d="M66.2928 62.376H67.4587C67.5556 62.376 67.6525 62.376 67.7494 62.3587L68.7533 67.5192H69.3915L68.3 62.1302C68.8983 61.7415 69.3915 60.7987 69.3915 58.7871V58.4614C69.3915 55.5411 68.357 54.8611 67.4587 54.8611H65.7083V67.5192H66.2928V62.376ZM66.2928 61.3187V55.9183H67.473C68.0149 55.9183 68.7932 56.324 68.7932 58.4956V58.7414C68.7932 60.9129 68.0149 61.3187 67.473 61.3187H66.2928Z" fill="#FA991C"/>
<path d="M71.6183 54.8611H71.0337V67.5192H71.6183V54.8611Z" fill="#FA991C"/>
<path d="M75.0819 54.8611L73.2603 67.6506H73.893L74.3468 64.4046H76.6528L77.1061 67.6506H77.7388L75.9172 54.8611H75.0819ZM75.4957 56.1469L76.499 63.3474H74.4918L75.4957 56.1469Z" fill="#FA991C"/>
<path d="M36.1036 76.6512H38.2845C38.4356 76.6512 38.5639 76.7598 38.6694 76.9712C38.7749 77.1884 38.8291 77.4455 38.8291 77.7485C38.8291 78.0513 38.7749 78.3085 38.6694 78.5256C38.5639 78.7371 38.4356 78.8457 38.2845 78.8457H36.1036C35.9525 78.8457 35.8242 78.7371 35.7188 78.5256C35.6104 78.3085 35.5591 78.0513 35.5591 77.7485C35.5591 77.4455 35.6104 77.1884 35.7188 76.9712C35.8242 76.7598 35.9525 76.6512 36.1036 76.6512ZM40.4655 76.6512H42.6435C42.7946 76.6512 42.9229 76.7598 43.0313 76.9712C43.1367 77.1884 43.1909 77.4455 43.1909 77.7485C43.1909 78.0513 43.1367 78.3085 43.0313 78.5256C42.9229 78.7371 42.7946 78.8457 42.6435 78.8457H40.4655C40.3143 78.8457 40.186 78.7371 40.0777 78.5256C39.9722 78.3085 39.9181 78.0513 39.9181 77.7485C39.9181 77.4455 39.9722 77.1884 40.0777 76.9712C40.186 76.7598 40.3143 76.6512 40.4655 76.6512ZM44.8244 76.6512H47.0054C47.1564 76.6512 47.2848 76.7598 47.3902 76.9712C47.4986 77.1884 47.5499 77.4455 47.5499 77.7485C47.5499 78.0513 47.4986 78.3085 47.3902 78.5256C47.2848 78.7371 47.1564 78.8457 47.0054 78.8457H44.8244C44.6734 78.8457 44.5451 78.7371 44.4396 78.5256C44.3341 78.3085 44.2799 78.0513 44.2799 77.7485C44.2799 77.4455 44.3341 77.1884 44.4396 76.9712C44.5451 76.7598 44.6734 76.6512 44.8244 76.6512ZM49.1863 76.6512H51.3672C51.5183 76.6512 51.6466 76.7598 51.7521 76.9712C51.8576 77.1884 51.9117 77.4455 51.9117 77.7485C51.9117 78.0513 51.8576 78.3085 51.7521 78.5256C51.6466 78.7371 51.5183 78.8457 51.3672 78.8457H49.1863C49.0352 78.8457 48.9069 78.7371 48.8014 78.5256C48.6931 78.3085 48.6418 78.0513 48.6418 77.7485C48.6418 77.4455 48.6931 77.1884 48.8014 76.9712C48.9069 76.7598 49.0352 76.6512 49.1863 76.6512ZM53.5481 76.6512H55.726C55.8771 76.6512 56.0057 76.7598 56.1141 76.9712C56.2192 77.1884 56.2734 77.4455 56.2734 77.7485C56.2734 78.0513 56.2192 78.3085 56.1141 78.5256C56.0057 78.7371 55.8771 78.8457 55.726 78.8457H53.5481C53.3971 78.8457 53.2688 78.7371 53.1604 78.5256C53.0549 78.3085 53.0008 78.0513 53.0008 77.7485C53.0008 77.4455 53.0549 77.1884 53.1604 76.9712C53.2688 76.7598 53.3971 76.6512 53.5481 76.6512ZM57.9073 76.6512H60.088C60.239 76.6512 60.3677 76.7598 60.4728 76.9712C60.5812 77.1884 60.6326 77.4455 60.6326 77.7485C60.6326 78.0513 60.5812 78.3085 60.4728 78.5256C60.3677 78.7371 60.239 78.8457 60.088 78.8457H57.9073C57.7562 78.8457 57.6276 78.7371 57.5225 78.5256C57.4168 78.3085 57.3626 78.0513 57.3626 77.7485C57.3626 77.4455 57.4168 77.1884 57.5225 76.9712C57.6276 76.7598 57.7562 76.6512 57.9073 76.6512ZM62.2687 76.6512H64.45C64.5983 76.6512 64.7264 76.7598 64.8348 76.9712C64.9404 77.1884 64.9946 77.4455 64.9946 77.7485C64.9946 78.0513 64.9404 78.3085 64.8348 78.5256C64.7264 78.7371 64.5983 78.8457 64.45 78.8457H62.2687C62.1176 78.8457 61.9895 78.7371 61.8839 78.5256C61.7755 78.3085 61.7246 78.0513 61.7246 77.7485C61.7246 77.4455 61.7755 77.1884 61.8839 76.9712C61.9895 76.7598 62.1176 76.6512 62.2687 76.6512ZM66.6279 76.6512H67.8568C68.0078 76.6512 68.1359 76.7598 68.2416 76.9712C68.35 77.1884 68.4014 77.4455 68.4014 77.7485C68.4014 78.0513 68.35 78.3085 68.2416 78.5256C68.1359 78.7371 68.0078 78.8457 67.8568 78.8457H66.6279C66.4796 78.8457 66.3515 78.7371 66.2431 78.5256C66.1375 78.3085 66.0833 78.0513 66.0833 77.7485C66.0833 77.4455 66.1375 77.1884 66.2431 76.9712C66.3515 76.7598 66.4796 76.6512 66.6279 76.6512Z" fill="white"/>
</g>
<defs>
<clipPath id="clip0_113_28">
<rect width="104" height="79" fill="white"/>
</clipPath>
</defs>
</svg>
