<svg width="48" height="48" viewBox="0 0 48 48" fill="none" xmlns="http://www.w3.org/2000/svg">
<g filter="url(#filter0_d_132_2)">
<rect x="4" width="40" height="40" rx="20" fill="white"/>
<path d="M35.6542 27.7036L26.2091 9.425C25.748 8.53265 24.9221 8 24 8C23.0779 8 22.252 8.53275 21.791 9.425L12.3458 27.7036C11.8847 28.596 11.8847 29.6614 12.3458 30.5537C12.8069 31.4461 13.6327 31.9787 14.555 31.9787H33.4451C34.3673 31.9787 35.1931 31.446 35.6542 30.5537C36.1153 29.6614 36.1153 28.5959 35.6542 27.7036ZM34.8186 30.0148C34.532 30.5696 34.0185 30.9008 33.4451 30.9008H14.5549C13.9814 30.9008 13.468 30.5695 13.1813 30.0148C12.8946 29.4599 12.8946 28.7975 13.1813 28.2426L22.6265 9.96398C22.9131 9.40913 23.4267 9.07797 24 9.07797C24.5734 9.07797 25.0869 9.40924 25.3735 9.96398L34.8186 28.2426C35.1054 28.7975 35.1054 29.4599 34.8186 30.0148Z" fill="#FA991C"/>
<path d="M24.5383 10.5034C24.3824 10.2011 24.1341 10.1559 24 10.1559C23.866 10.1559 23.618 10.201 23.462 10.5029L14.0166 28.7821C13.861 29.0839 13.9499 29.3462 14.0169 29.4759C14.0839 29.6054 14.2429 29.8229 14.5549 29.8229H33.4451C33.7573 29.8229 33.9162 29.6053 33.983 29.476C34.05 29.3464 34.1392 29.0838 33.9831 28.7816L24.5383 10.5034ZM15.1498 28.7448L24 11.6177L32.8501 28.7449H15.1498V28.7448Z" fill="#FA991C"/>
<path d="M23.5865 16.0059L23.5673 16.0563C23.4636 16.3305 23.5784 16.6467 23.8238 16.7626C23.8851 16.7915 23.9488 16.8053 24.0115 16.8053C24.1994 16.8053 24.3782 16.6816 24.456 16.476L24.4751 16.4256C24.5789 16.1514 24.464 15.8351 24.2186 15.7193C23.9732 15.6034 23.6902 15.7317 23.5865 16.0059Z" fill="#FA991C"/>
<path d="M23.7988 18.2144C23.9025 17.9402 23.7875 17.624 23.5421 17.5081C23.2968 17.3925 23.0137 17.5207 22.91 17.7949L21.5731 21.3307C21.5111 21.4948 21.5257 21.6827 21.6121 21.8325C21.6986 21.9823 21.8457 22.0747 22.0052 22.0792L24.5679 22.1527L22.7259 25.4574L22.6891 24.9783C22.6663 24.6817 22.4325 24.4612 22.1672 24.4875C21.9018 24.5129 21.7051 24.7739 21.7279 25.0705L21.8868 27.1388C21.8992 27.3012 21.9767 27.4484 22.0977 27.5395C22.1783 27.6003 22.2723 27.6317 22.3674 27.6317C22.415 27.6317 22.4627 27.6238 22.5092 27.6079L24.285 26.9978C24.5397 26.9103 24.6826 26.6087 24.6043 26.3242C24.526 26.0397 24.2561 25.88 24.0014 25.9674L23.478 26.1472L25.8325 21.923C25.9239 21.7589 25.9297 21.5526 25.8477 21.3825C25.7656 21.2123 25.6083 21.1042 25.4353 21.0992L22.7372 21.0219L23.7988 18.2144Z" fill="#FA991C"/>
</g>
<defs>
<filter id="filter0_d_132_2" x="0" y="0" width="48" height="48" filterUnits="userSpaceOnUse" color-interpolation-filters="sRGB">
<feFlood flood-opacity="0" result="BackgroundImageFix"/>
<feColorMatrix in="SourceAlpha" type="matrix" values="0 0 0 0 0 0 0 0 0 0 0 0 0 0 0 0 0 0 127 0" result="hardAlpha"/>
<feOffset dy="4"/>
<feGaussianBlur stdDeviation="2"/>
<feComposite in2="hardAlpha" operator="out"/>
<feColorMatrix type="matrix" values="0 0 0 0 0 0 0 0 0 0 0 0 0 0 0 0 0 0 0.25 0"/>
<feBlend mode="normal" in2="BackgroundImageFix" result="effect1_dropShadow_132_2"/>
<feBlend mode="normal" in="SourceGraphic" in2="effect1_dropShadow_132_2" result="shape"/>
</filter>
</defs>
</svg>
